<svg width="98" height="52" viewBox="0 0 98 52" fill="none" xmlns="http://www.w3.org/2000/svg">
<path d="M6.36 15.48C5.21333 15.48 4.29333 15.1467 3.6 14.48C2.93333 13.7867 2.6 12.8667 2.6 11.72C2.6 10.6 2.94667 9.69333 3.64 9C4.36 8.30666 5.29333 7.96 6.44 7.96C7.61333 7.96 8.53333 8.30666 9.2 9C9.89333 9.69333 10.24 10.6 10.24 11.72C10.24 12.8667 9.88 13.7867 9.16 14.48C8.46667 15.1467 7.53333 15.48 6.36 15.48ZM1.88 40C1.58667 39.7067 1.36 39.3867 1.2 39.04C1.04 38.6933 0.96 38.2933 0.96 37.84C1.73333 37.84 2.30667 37.68 2.68 37.36C3.05333 37.0133 3.24 36.44 3.24 35.64V24.04C3.24 23.3467 3.06667 22.8267 2.72 22.48C2.4 22.1333 1.69333 21.96 0.6 21.96V20.2C1 19.96 1.61333 19.6933 2.44 19.4C3.26667 19.08 4.16 18.8133 5.12 18.6C6.10667 18.3867 6.98667 18.28 7.76 18.28C8.37333 18.28 8.81333 18.4267 9.08 18.72C9.34667 18.9867 9.48 19.4533 9.48 20.12V35.68C9.48 36.48 9.68 37.04 10.08 37.36C10.48 37.68 11.0667 37.84 11.84 37.84C11.84 38.2933 11.76 38.6933 11.6 39.04C11.44 39.3867 11.2133 39.7067 10.92 40H1.88ZM23.1838 40.52C21.2904 40.52 19.6104 40.12 18.1438 39.32C16.6771 38.4933 15.5304 37.2933 14.7038 35.72C13.9038 34.12 13.5038 32.1467 13.5038 29.8C13.5038 27.2933 13.9304 25.1867 14.7838 23.48C15.6371 21.7733 16.8238 20.48 18.3438 19.6C19.8638 18.72 21.6104 18.28 23.5838 18.28C25.5038 18.28 27.1838 18.6933 28.6238 19.52C30.0904 20.3467 31.2238 21.5733 32.0238 23.2C32.8504 24.8 33.2638 26.7867 33.2638 29.16C33.2638 31.64 32.8371 33.7333 31.9838 35.44C31.1304 37.12 29.9438 38.3867 28.4238 39.24C26.9038 40.0933 25.1571 40.52 23.1838 40.52ZM23.5038 37.64C24.0638 37.64 24.5438 37.44 24.9438 37.04C25.3704 36.64 25.6904 35.9067 25.9038 34.84C26.1438 33.7467 26.2638 32.1733 26.2638 30.12C26.2638 27.6133 26.1438 25.72 25.9038 24.44C25.6638 23.1333 25.3171 22.2533 24.8638 21.8C24.4104 21.3467 23.8771 21.12 23.2638 21.12C22.7038 21.12 22.2104 21.32 21.7838 21.72C21.3571 22.12 21.0238 22.8667 20.7838 23.96C20.5704 25.0533 20.4638 26.64 20.4638 28.72C20.4638 31.2 20.5838 33.08 20.8238 34.36C21.0904 35.64 21.4504 36.5067 21.9038 36.96C22.3571 37.4133 22.8904 37.64 23.5038 37.64ZM43.7713 40.4C42.8113 40.4 41.8379 40.2933 40.8513 40.08C39.8913 39.8667 38.9979 39.56 38.1713 39.16C37.3713 38.76 36.7179 38.2667 36.2113 37.68C35.7046 37.0667 35.4513 36.3733 35.4513 35.6C35.4513 34.6667 35.7179 33.92 36.2513 33.36C36.7846 32.7733 37.4646 32.48 38.2913 32.48C39.0379 32.48 39.6646 32.72 40.1713 33.2C40.7046 33.68 40.9713 34.3067 40.9713 35.08C40.9713 35.4267 40.9179 35.7333 40.8113 36C40.7046 36.24 40.5446 36.5067 40.3313 36.8C40.5713 37.04 40.9979 37.2133 41.6113 37.32C42.2246 37.4267 42.8246 37.48 43.4113 37.48C44.3446 37.48 45.0646 37.3067 45.5713 36.96C46.0779 36.6133 46.3313 36.1867 46.3313 35.68C46.3313 34.88 45.9046 34.2 45.0513 33.64C44.1979 33.0533 43.2246 32.4667 42.1313 31.88C41.1446 31.3467 40.1579 30.7867 39.1713 30.2C38.2113 29.5867 37.3979 28.8267 36.7313 27.92C36.0913 27.0133 35.7713 25.8667 35.7713 24.48C35.7713 22.72 36.5046 21.2667 37.9713 20.12C39.4379 18.9733 41.5179 18.4 44.2113 18.4C46.0779 18.4 47.5713 18.64 48.6913 19.12C49.8113 19.5733 50.6246 20.16 51.1313 20.88C51.6379 21.5733 51.8913 22.3067 51.8913 23.08C51.8913 23.9067 51.6246 24.5733 51.0913 25.08C50.5846 25.56 49.9579 25.8 49.2113 25.8C48.5446 25.8 47.9579 25.6 47.4513 25.2C46.9446 24.7733 46.6913 24.2267 46.6913 23.56C46.6913 23.24 46.7446 22.8933 46.8513 22.52C46.9579 22.1467 47.1046 21.84 47.2913 21.6C46.9979 21.36 46.6513 21.2 46.2513 21.12C45.8779 21.0133 45.4246 20.96 44.8913 20.96C44.0113 20.96 43.3313 21.1733 42.8513 21.6C42.3979 22 42.1713 22.4933 42.1713 23.08C42.1713 23.9867 42.5979 24.7333 43.4513 25.32C44.3313 25.9067 45.3046 26.48 46.3713 27.04C47.3579 27.5467 48.3179 28.0933 49.2513 28.68C50.2113 29.2667 51.0113 30 51.6513 30.88C52.2913 31.76 52.6113 32.8933 52.6113 34.28C52.6113 35.7733 52.1846 36.9733 51.3313 37.88C50.4779 38.76 49.3713 39.4 48.0113 39.8C46.6779 40.2 45.2646 40.4 43.7713 40.4Z" fill="white"/>
<g clip-path="url(#clip0_2302_3227)">
<path d="M88.9597 28.4207C87.8597 22.882 93.1157 19.634 93.1157 19.634C93.1157 19.634 91.0663 16.674 87.6263 15.914C84.1863 15.1487 82.465 16.0994 80.7477 16.8207C79.0277 17.5354 78.169 17.5354 78.169 17.5354C75.6877 17.5354 73.873 14.9087 69.141 16.1087C65.8863 16.93 62.4543 20.69 61.8343 25.1807C61.213 29.67 62.5517 35.3994 65.1303 39.8394C67.7117 44.282 70.3383 45.954 72.201 46.0007C74.0637 46.0474 75.9263 44.6647 78.1717 44.326C80.417 43.998 81.7957 45.1434 83.9983 45.7634C86.1957 46.3834 86.9637 45.8047 89.4877 43.6567C92.021 41.5087 94.3183 35.342 94.3183 35.342C94.3183 35.342 90.061 33.966 88.9597 28.4207Z" fill="white"/>
<path d="M84.091 12.33C86.5284 9.84329 85.7004 6.00195 85.7004 6.00195C85.7004 6.00195 82.279 6.59795 79.987 8.98595C77.6924 11.3766 78.0724 15.1446 78.0724 15.1446C78.0724 15.1446 81.651 14.814 84.091 12.33Z" fill="white"/>
</g>
<defs>
<clipPath id="clip0_2302_3227">
<rect width="40" height="40" fill="white" transform="translate(58 6)"/>
</clipPath>
</defs>
</svg>
